<svg id="svg" version="1.1" xmlns="http://www.w3.org/2000/svg" xmlns:xlink="http://www.w3.org/1999/xlink" width="400" height="400" viewBox="0, 0, 400,400"><g id="svgg"><path id="path0" d="M0.000 200.000 L 0.000 400.000 43.033 400.000 C 77.282 400.000,86.033 399.898,85.901 399.500 C 85.806 399.215,84.656 398.879,83.220 398.719 C 81.837 398.565,80.400 398.162,80.026 397.824 C 79.653 397.486,78.778 397.096,78.083 396.957 C 77.387 396.817,76.603 396.445,76.341 396.129 C 76.078 395.812,75.264 395.303,74.532 394.997 C 73.799 394.691,73.200 394.252,73.200 394.020 C 73.200 393.789,72.922 393.600,72.583 393.600 C 71.618 393.600,63.600 385.208,63.600 384.198 C 63.600 383.936,63.235 383.302,62.789 382.787 C 62.343 382.273,61.869 381.391,61.735 380.826 C 61.602 380.262,61.253 379.523,60.960 379.184 C 60.667 378.845,60.220 377.585,59.966 376.384 C 59.712 375.183,59.301 373.840,59.052 373.400 C 58.720 372.812,58.547 339.998,58.400 249.600 L 58.200 126.600 50.800 126.368 C 45.322 126.196,42.984 125.967,41.800 125.486 C 40.920 125.128,39.716 124.827,39.124 124.818 C 38.532 124.808,37.925 124.602,37.775 124.359 C 37.625 124.117,36.939 123.659,36.251 123.342 C 26.706 118.943,22.457 105.061,27.515 94.800 C 28.112 93.590,28.825 92.456,29.100 92.280 C 29.375 92.104,29.600 91.783,29.600 91.567 C 29.600 91.099,32.234 88.400,32.690 88.400 C 32.865 88.400,33.232 88.040,33.507 87.600 C 33.782 87.160,34.204 86.800,34.446 86.800 C 34.687 86.800,35.419 86.350,36.073 85.800 C 36.727 85.250,37.614 84.800,38.045 84.800 C 38.476 84.800,39.309 84.485,39.896 84.100 C 40.881 83.454,43.253 83.383,70.382 83.187 C 86.562 83.070,99.800 82.935,99.800 82.887 C 99.800 27.233,99.883 24.803,101.875 22.336 C 102.113 22.041,102.430 21.227,102.580 20.528 C 102.729 19.828,103.101 19.048,103.405 18.796 C 103.710 18.543,104.162 17.720,104.411 16.968 C 104.659 16.216,105.023 15.600,105.221 15.600 C 105.418 15.600,105.864 15.050,106.211 14.379 C 106.868 13.109,107.219 12.678,109.675 10.130 C 111.784 7.942,113.690 6.400,114.286 6.400 C 114.569 6.400,114.800 6.221,114.800 6.003 C 114.800 5.611,116.489 4.615,119.200 3.409 C 119.970 3.066,121.140 2.527,121.800 2.209 C 122.460 1.892,123.720 1.520,124.600 1.381 C 132.662 0.115,127.594 0.000,63.800 0.000 L 0.000 0.000 0.000 200.000 M273.300 0.500 C 273.391 0.775,274.531 1.149,275.833 1.331 C 277.135 1.513,278.470 1.886,278.800 2.160 C 279.130 2.434,280.156 2.896,281.079 3.186 C 282.003 3.477,282.852 3.959,282.967 4.257 C 283.081 4.556,283.470 4.800,283.830 4.800 C 284.994 4.800,290.950 9.824,292.904 12.453 C 293.290 12.974,294.031 13.940,294.549 14.600 C 295.067 15.260,295.617 16.205,295.772 16.700 C 295.927 17.195,296.193 17.600,296.363 17.600 C 296.747 17.600,297.600 19.425,297.600 20.247 C 297.600 20.583,297.857 21.114,298.172 21.429 C 298.486 21.743,298.956 23.035,299.216 24.300 C 299.477 25.565,299.894 26.960,300.145 27.400 C 300.467 27.967,300.658 36.190,300.800 55.600 L 301.000 83.000 330.458 83.200 C 357.787 83.386,359.972 83.451,360.690 84.100 C 361.115 84.485,361.790 84.800,362.190 84.800 C 363.935 84.800,372.000 91.535,372.000 92.992 C 372.000 93.267,372.327 93.921,372.727 94.446 C 374.921 97.325,376.190 108.057,374.587 110.176 C 374.264 110.604,373.997 111.324,373.994 111.776 C 373.991 112.229,373.732 113.050,373.418 113.600 C 373.105 114.150,372.594 115.140,372.283 115.800 C 371.398 117.679,365.687 123.200,364.627 123.200 C 364.350 123.200,363.717 123.552,363.221 123.981 C 362.726 124.411,361.483 124.884,360.460 125.033 C 359.437 125.181,358.240 125.504,357.800 125.751 C 357.330 126.015,353.944 126.283,349.600 126.400 L 342.200 126.600 342.000 250.200 C 341.815 364.659,341.751 373.889,341.132 375.000 C 340.765 375.660,340.248 377.052,339.983 378.092 C 339.717 379.133,339.253 380.190,338.950 380.441 C 338.648 380.692,338.400 381.142,338.400 381.441 C 338.400 382.174,335.990 385.898,334.447 387.550 C 333.761 388.284,333.200 388.947,333.200 389.023 C 333.200 389.223,330.610 391.662,329.400 392.600 C 328.833 393.040,327.899 393.805,327.326 394.300 C 326.752 394.795,326.064 395.200,325.796 395.200 C 325.527 395.200,324.879 395.533,324.354 395.939 C 323.829 396.345,322.860 396.809,322.200 396.970 C 321.540 397.131,320.699 397.534,320.331 397.865 C 319.963 398.197,318.883 398.554,317.931 398.659 C 315.245 398.955,314.400 399.182,314.400 399.608 C 314.400 399.862,329.488 400.000,357.200 400.000 L 400.000 400.000 400.000 200.000 L 400.000 0.000 336.567 0.000 C 285.998 0.000,273.167 0.101,273.300 0.500 M156.200 43.494 C 155.760 43.605,155.045 43.945,154.611 44.248 C 154.177 44.552,153.502 44.800,153.111 44.800 C 152.720 44.800,152.040 45.160,151.600 45.600 C 151.160 46.040,150.648 46.400,150.461 46.400 C 149.476 46.400,145.019 51.754,144.467 53.600 C 144.237 54.370,143.765 55.775,143.419 56.722 C 142.887 58.177,142.805 60.357,142.894 70.722 L 143.000 83.000 199.400 83.110 C 230.420 83.170,256.224 83.117,256.743 82.991 L 257.686 82.763 257.543 69.482 C 257.404 56.556,257.376 56.159,256.500 54.677 C 256.005 53.840,255.600 52.957,255.600 52.715 C 255.600 52.473,255.150 51.686,254.600 50.964 C 254.050 50.243,253.600 49.473,253.600 49.254 C 253.600 49.034,253.249 48.743,252.820 48.606 C 252.392 48.470,251.930 48.008,251.794 47.580 C 251.657 47.151,251.297 46.800,250.994 46.800 C 250.690 46.800,249.956 46.350,249.362 45.800 C 248.769 45.250,247.949 44.800,247.540 44.800 C 247.131 44.800,246.125 44.440,245.304 44.000 C 243.869 43.231,159.153 42.750,156.200 43.494 M121.400 126.668 C 120.520 126.772,119.440 127.183,119.000 127.582 C 118.560 127.981,117.837 128.418,117.393 128.552 C 116.423 128.844,112.400 132.665,112.400 133.294 C 112.400 133.538,112.115 134.051,111.768 134.436 C 109.522 136.917,109.600 133.037,109.599 241.780 C 109.598 348.176,109.539 344.733,111.422 348.000 C 111.739 348.550,112.219 349.495,112.488 350.101 C 112.756 350.707,113.297 351.304,113.688 351.428 C 114.080 351.552,114.402 351.867,114.405 352.127 C 114.411 352.680,116.493 354.118,119.600 355.715 C 123.567 357.754,132.660 356.663,134.723 353.900 C 135.010 353.515,135.407 353.200,135.604 353.200 C 136.816 353.200,138.944 349.890,140.751 345.192 L 141.600 342.985 141.600 241.367 C 141.600 142.687,141.578 139.705,140.847 138.175 C 140.433 137.309,139.972 136.030,139.823 135.333 C 139.673 134.637,139.292 133.967,138.976 133.846 C 138.659 133.724,138.400 133.389,138.400 133.100 C 138.400 132.443,134.283 128.400,133.614 128.400 C 133.344 128.400,132.608 128.033,131.978 127.584 C 130.783 126.733,125.065 126.238,121.400 126.668 M196.200 126.668 C 195.320 126.772,194.240 127.183,193.800 127.582 C 193.360 127.981,192.601 128.429,192.114 128.576 C 191.136 128.873,187.200 132.504,187.200 133.110 C 187.200 133.320,186.864 133.921,186.453 134.446 C 184.785 136.575,184.800 135.596,184.800 241.600 C 184.800 357.110,184.447 347.096,188.682 351.791 C 192.643 356.182,202.981 358.682,205.742 355.916 C 206.118 355.539,207.050 355.114,207.813 354.971 C 208.594 354.825,209.200 354.472,209.200 354.163 C 209.200 353.862,209.650 353.502,210.200 353.364 C 210.750 353.226,211.200 352.872,211.200 352.577 C 211.200 352.281,211.457 351.896,211.770 351.720 C 212.729 351.182,214.359 348.487,215.303 345.877 L 216.200 343.400 216.188 241.400 L 216.176 139.400 215.212 136.800 C 214.682 135.370,214.012 134.056,213.724 133.880 C 213.436 133.704,213.200 133.358,213.200 133.111 C 213.200 132.468,208.944 128.400,208.271 128.400 C 207.961 128.400,207.241 128.033,206.671 127.584 C 205.587 126.732,199.899 126.234,196.200 126.668 M270.824 126.668 C 270.067 126.775,269.007 127.208,268.470 127.631 C 267.932 128.054,267.245 128.400,266.943 128.400 C 266.642 128.400,266.003 128.850,265.525 129.400 C 265.047 129.950,264.418 130.400,264.128 130.400 C 263.838 130.400,263.600 130.664,263.600 130.986 C 263.600 131.308,263.240 131.765,262.800 132.000 C 262.360 132.235,262.000 132.668,262.000 132.960 C 262.000 133.253,261.617 133.980,261.148 134.575 C 259.148 137.117,259.201 134.230,259.200 241.674 C 259.200 350.181,259.109 345.479,261.283 348.963 C 262.981 351.682,266.757 355.197,267.987 355.203 C 268.324 355.204,269.140 355.563,269.800 356.000 C 271.512 357.134,278.304 357.164,280.153 356.046 C 280.839 355.631,281.850 355.158,282.400 354.995 C 282.950 354.832,283.670 354.453,284.000 354.153 C 284.330 353.853,285.275 353.000,286.100 352.257 C 286.925 351.513,287.600 350.775,287.600 350.615 C 287.600 350.454,287.928 349.846,288.330 349.262 C 288.731 348.678,289.451 347.102,289.930 345.759 L 290.800 343.318 290.800 241.148 C 290.800 155.728,290.711 138.849,290.257 138.189 C 289.958 137.755,289.594 136.750,289.449 135.955 C 289.303 135.160,288.828 134.187,288.392 133.793 C 287.956 133.399,287.600 132.888,287.600 132.658 C 287.600 132.143,283.659 128.400,283.116 128.400 C 282.900 128.400,282.204 128.030,281.569 127.578 C 280.377 126.729,274.135 126.200,270.824 126.668 " stroke="none" fill="#fcfafa" fill-rule="evenodd"></path><path id="path1" d="M124.451 3.156 C 123.971 3.572,122.776 4.033,121.796 4.180 C 120.816 4.327,119.875 4.681,119.707 4.967 C 119.538 5.253,118.741 5.701,117.935 5.963 C 117.130 6.225,116.370 6.700,116.248 7.019 C 116.125 7.339,115.765 7.600,115.447 7.600 C 114.818 7.600,108.800 13.375,108.800 13.978 C 108.800 14.180,108.440 14.460,108.000 14.600 C 107.560 14.740,107.200 15.174,107.200 15.565 C 107.200 15.956,106.856 16.587,106.436 16.967 C 106.016 17.348,105.564 18.090,105.431 18.618 C 105.299 19.145,104.833 19.768,104.395 20.003 C 103.775 20.335,103.599 20.843,103.597 22.314 C 103.596 23.523,103.309 24.631,102.800 25.400 C 102.026 26.569,102.005 27.334,102.003 54.838 C 102.000 81.685,101.964 83.109,101.269 83.738 C 100.602 84.341,98.020 84.400,72.400 84.400 C 47.975 84.400,44.176 84.479,43.601 84.999 C 43.237 85.328,41.820 85.715,40.452 85.858 C 38.617 86.050,37.861 86.312,37.569 86.859 C 37.350 87.266,36.930 87.600,36.635 87.600 C 36.340 87.600,35.888 87.853,35.631 88.163 C 35.374 88.473,34.541 89.021,33.782 89.382 C 33.022 89.743,32.400 90.299,32.400 90.619 C 32.400 90.938,32.224 91.200,32.008 91.200 C 31.793 91.200,31.249 91.920,30.800 92.800 C 30.351 93.680,29.807 94.400,29.592 94.400 C 29.376 94.400,29.200 94.795,29.200 95.278 C 29.200 95.762,28.733 96.830,28.163 97.654 C 26.686 99.784,26.788 110.390,28.300 111.901 C 28.795 112.395,29.200 113.246,29.200 113.791 C 29.200 115.235,35.924 121.932,37.702 122.260 C 38.416 122.391,39.232 122.792,39.517 123.149 C 39.958 123.705,41.424 123.834,49.517 124.035 C 54.732 124.164,59.026 124.299,59.057 124.335 C 59.089 124.371,59.269 124.715,59.457 125.100 C 59.646 125.485,59.896 180.250,60.014 246.800 C 60.242 375.816,60.230 375.030,62.090 376.890 C 62.480 377.280,62.800 378.112,62.800 378.738 C 62.800 379.368,63.157 380.199,63.600 380.600 C 64.040 380.998,64.400 381.630,64.400 382.004 C 64.400 382.377,64.850 383.169,65.400 383.762 C 65.950 384.356,66.400 384.999,66.400 385.192 C 66.400 385.740,73.197 392.400,73.756 392.400 C 74.031 392.400,74.647 392.850,75.125 393.400 C 75.612 393.959,76.428 394.400,76.977 394.400 C 77.518 394.400,78.121 394.688,78.318 395.040 C 78.516 395.392,79.546 395.843,80.608 396.041 C 81.670 396.239,82.837 396.671,83.201 397.001 C 84.218 397.921,316.684 397.911,317.357 396.991 C 317.602 396.656,318.522 396.268,319.401 396.130 C 320.281 395.991,321.429 395.545,321.954 395.139 C 322.479 394.732,323.217 394.400,323.596 394.400 C 323.974 394.400,324.769 393.950,325.362 393.400 C 325.956 392.850,326.809 392.400,327.258 392.400 C 327.738 392.400,328.161 392.071,328.284 391.600 C 328.399 391.160,328.672 390.800,328.890 390.800 C 329.350 390.800,333.600 386.568,333.600 386.109 C 333.601 385.939,334.051 385.277,334.600 384.638 C 335.150 383.999,335.600 383.244,335.600 382.960 C 335.600 382.677,335.931 382.210,336.335 381.923 C 336.740 381.635,337.179 380.722,337.311 379.894 C 337.443 379.065,337.923 377.916,338.376 377.340 C 338.939 376.624,339.200 375.705,339.200 374.435 C 339.200 373.310,339.476 372.188,339.900 371.589 C 340.562 370.654,340.611 363.918,340.800 247.685 C 340.977 139.009,341.070 124.727,341.600 124.392 C 341.931 124.183,346.169 124.010,351.039 124.006 C 359.299 124.000,359.938 123.948,360.800 123.200 C 361.307 122.760,362.046 122.400,362.441 122.400 C 362.836 122.400,363.644 121.950,364.238 121.400 C 364.831 120.850,365.516 120.400,365.758 120.399 C 366.521 120.397,371.200 114.812,371.200 113.903 C 371.200 113.584,371.560 112.907,372.000 112.400 C 373.231 110.981,373.231 97.059,372.000 96.400 C 371.560 96.165,371.200 95.632,371.200 95.217 C 371.200 94.801,370.750 93.927,370.200 93.273 C 369.650 92.619,369.200 91.898,369.200 91.669 C 369.200 91.441,368.840 91.140,368.400 91.000 C 367.960 90.860,367.600 90.488,367.600 90.173 C 367.600 89.858,367.340 89.600,367.023 89.600 C 366.705 89.600,366.210 89.266,365.923 88.857 C 365.635 88.449,364.950 87.978,364.400 87.811 C 363.850 87.645,363.040 87.192,362.600 86.807 C 362.160 86.421,360.913 85.991,359.829 85.851 C 358.745 85.711,357.561 85.327,357.198 84.998 C 356.625 84.479,352.839 84.400,328.687 84.400 C 299.438 84.400,298.990 84.374,298.589 82.631 C 298.484 82.174,298.354 69.015,298.299 53.390 L 298.200 24.980 297.300 23.836 C 296.803 23.204,296.400 22.133,296.400 21.442 C 296.400 20.653,296.123 20.020,295.650 19.724 C 295.237 19.466,294.779 18.613,294.632 17.828 C 294.484 17.042,294.129 16.400,293.843 16.400 C 293.557 16.400,293.160 16.049,292.961 15.620 C 292.420 14.449,288.264 9.649,287.770 9.623 C 287.533 9.610,286.917 9.150,286.400 8.600 C 285.883 8.050,285.234 7.600,284.957 7.600 C 284.680 7.600,284.340 7.240,284.200 6.800 C 284.043 6.306,283.595 6.000,283.027 6.000 C 282.521 6.000,281.646 5.637,281.082 5.193 C 280.518 4.749,279.227 4.231,278.214 4.042 C 277.200 3.853,276.048 3.406,275.654 3.049 C 274.448 1.958,125.711 2.063,124.451 3.156 M241.714 41.362 C 242.201 41.671,243.738 42.050,245.129 42.205 C 246.647 42.373,247.740 42.698,247.862 43.018 C 247.975 43.311,248.592 43.666,249.233 43.807 C 249.874 43.948,250.624 44.376,250.900 44.758 C 251.175 45.140,251.732 45.577,252.138 45.728 C 252.544 45.880,252.970 46.363,253.085 46.802 C 253.199 47.241,253.559 47.600,253.884 47.600 C 254.209 47.600,254.567 47.954,254.681 48.387 C 254.794 48.819,255.227 49.282,255.643 49.414 C 256.059 49.546,256.400 49.870,256.400 50.134 C 256.400 50.398,256.850 51.277,257.400 52.086 C 258.189 53.247,258.400 54.059,258.400 55.930 C 258.400 57.550,258.590 58.460,259.000 58.800 C 259.508 59.222,259.600 61.088,259.600 71.020 L 259.600 82.742 258.546 83.571 L 257.492 84.400 199.995 84.400 C 151.025 84.400,142.429 84.316,142.030 83.836 C 141.687 83.423,141.594 79.361,141.681 68.585 L 141.800 53.897 142.700 53.300 C 143.248 52.936,143.600 52.297,143.600 51.665 C 143.600 51.095,143.951 50.262,144.381 49.814 C 148.642 45.374,150.231 44.000,151.108 44.000 C 151.460 44.000,152.125 43.646,152.585 43.214 C 153.121 42.710,154.280 42.330,155.811 42.155 C 157.125 42.005,158.555 41.639,158.989 41.341 C 160.188 40.519,240.417 40.539,241.714 41.362 M129.838 124.985 C 130.086 125.323,130.844 125.600,131.523 125.600 C 132.287 125.600,133.171 125.982,133.838 126.600 C 134.431 127.150,135.116 127.600,135.358 127.600 C 136.538 127.601,141.174 132.954,141.193 134.337 C 141.197 134.632,141.560 135.331,142.000 135.891 C 142.795 136.902,142.800 137.514,142.800 241.654 C 142.800 345.867,142.796 346.404,142.000 347.200 C 141.560 347.640,141.200 348.369,141.200 348.819 C 141.200 349.270,140.750 350.055,140.200 350.565 C 139.650 351.075,139.200 351.641,139.200 351.824 C 139.200 352.360,137.097 354.400,136.545 354.400 C 136.267 354.400,135.896 354.657,135.720 354.970 C 135.119 356.042,132.218 357.701,130.608 357.894 C 129.724 358.000,128.233 358.335,127.296 358.640 C 125.827 359.117,125.358 359.112,123.896 358.602 C 122.963 358.278,121.660 358.006,121.000 358.000 C 120.340 357.993,119.350 357.732,118.800 357.418 C 118.250 357.105,117.215 356.576,116.500 356.244 C 115.785 355.912,115.200 355.362,115.200 355.020 C 115.200 354.679,114.993 354.400,114.740 354.400 C 114.255 354.400,111.600 351.834,111.600 351.366 C 111.600 351.215,111.150 350.675,110.600 350.165 C 110.011 349.619,109.600 348.796,109.600 348.163 C 109.600 347.572,109.285 346.858,108.900 346.576 C 107.721 345.714,107.619 137.918,108.798 136.909 C 109.239 136.531,109.600 135.731,109.600 135.132 C 109.600 134.523,110.042 133.565,110.600 132.962 C 111.150 132.369,111.600 131.706,111.600 131.490 C 111.600 130.955,115.239 127.600,115.819 127.600 C 116.074 127.600,116.769 127.150,117.362 126.600 C 117.984 126.024,118.920 125.600,119.572 125.600 C 120.193 125.600,120.917 125.341,121.180 125.024 C 122.150 123.855,128.990 123.824,129.838 124.985 M204.779 124.981 C 205.155 125.321,205.819 125.600,206.254 125.600 C 206.689 125.600,207.655 126.050,208.400 126.600 C 209.145 127.150,209.945 127.602,210.178 127.605 C 211.107 127.616,215.600 132.614,215.600 133.637 C 215.600 133.919,216.005 134.580,216.500 135.106 L 217.400 136.064 217.400 241.332 L 217.400 346.600 216.500 347.862 C 216.005 348.556,215.600 349.399,215.600 349.735 C 215.600 350.071,215.240 350.460,214.800 350.600 C 214.360 350.740,214.000 351.079,214.000 351.355 C 214.000 352.008,211.862 354.400,211.278 354.400 C 211.031 354.400,210.642 354.748,210.414 355.173 C 210.187 355.598,209.596 356.073,209.100 356.228 C 208.605 356.383,207.771 356.845,207.246 357.255 C 206.652 357.719,205.642 358.000,204.570 358.000 C 203.622 358.000,202.749 358.159,202.629 358.354 C 202.284 358.911,199.902 359.136,198.800 358.716 C 198.250 358.506,196.810 358.171,195.600 357.972 C 194.390 357.774,193.220 357.368,193.000 357.072 C 192.780 356.775,192.110 356.411,191.512 356.262 C 190.913 356.112,190.232 355.633,189.997 355.195 C 189.763 354.758,189.337 354.400,189.050 354.400 C 188.763 354.400,188.323 353.950,188.073 353.400 C 187.822 352.850,187.343 352.400,187.009 352.400 C 186.674 352.400,186.400 352.162,186.400 351.872 C 186.400 351.582,185.950 350.953,185.400 350.475 C 184.770 349.927,184.400 349.183,184.400 348.465 C 184.400 347.832,184.044 347.002,183.600 346.600 C 182.336 345.456,182.336 138.116,183.600 136.509 C 184.040 135.950,184.400 135.077,184.400 134.569 C 184.400 134.061,184.752 133.399,185.181 133.098 C 185.611 132.797,186.138 132.090,186.352 131.526 C 186.716 130.569,189.916 127.600,190.583 127.600 C 190.749 127.600,191.419 127.150,192.073 126.600 C 192.727 126.050,193.768 125.600,194.388 125.600 C 195.007 125.600,195.613 125.342,195.734 125.027 C 196.177 123.874,203.514 123.836,204.779 124.981 M279.142 124.947 C 279.538 125.306,280.363 125.600,280.974 125.600 C 281.585 125.600,282.619 126.050,283.273 126.600 C 283.927 127.150,284.673 127.602,284.931 127.605 C 285.982 127.616,290.400 132.604,290.400 133.779 C 290.400 134.139,290.805 134.980,291.300 135.650 L 292.200 136.867 292.200 241.543 L 292.200 346.220 291.300 347.364 C 290.805 347.993,290.400 348.842,290.400 349.251 C 290.400 349.659,290.040 350.218,289.600 350.493 C 289.160 350.768,288.800 351.205,288.800 351.466 C 288.800 352.276,286.767 354.400,285.991 354.400 C 285.586 354.400,285.140 354.760,285.000 355.200 C 284.860 355.640,284.495 356.000,284.189 356.000 C 283.882 356.000,283.297 356.359,282.888 356.798 C 282.433 357.286,281.380 357.691,280.172 357.842 C 279.088 357.978,277.433 358.337,276.496 358.641 C 275.028 359.117,274.557 359.111,273.096 358.602 C 272.163 358.278,270.902 358.009,270.294 358.006 C 269.042 357.999,264.840 355.768,264.522 354.942 C 264.408 354.644,264.059 354.400,263.747 354.400 C 263.435 354.400,263.009 353.950,262.800 353.400 C 262.591 352.850,262.141 352.400,261.800 352.400 C 261.459 352.400,261.009 351.950,260.800 351.400 C 260.591 350.850,260.243 350.400,260.026 350.400 C 259.809 350.400,259.414 349.635,259.147 348.700 C 258.880 347.765,258.378 346.666,258.031 346.258 C 257.058 345.114,257.064 137.782,258.038 137.068 C 258.388 136.810,258.802 135.921,258.957 135.091 C 259.113 134.261,259.591 133.363,260.020 133.095 C 260.449 132.827,260.800 132.318,260.800 131.963 C 260.800 131.266,264.558 127.600,265.273 127.600 C 265.512 127.600,266.125 127.150,266.635 126.600 C 267.278 125.907,267.984 125.600,268.938 125.600 C 269.762 125.600,270.402 125.371,270.534 125.029 C 270.985 123.851,277.859 123.786,279.142 124.947 " stroke="none" fill="#fc0404" fill-rule="evenodd"></path><path id="path2" d="M127.520 0.439 C 127.440 0.680,126.390 1.047,125.187 1.255 C 123.984 1.462,122.460 1.892,121.800 2.209 C 121.140 2.526,119.970 3.066,119.200 3.409 C 116.489 4.615,114.800 5.611,114.800 6.003 C 114.800 6.221,114.569 6.400,114.286 6.400 C 113.690 6.400,111.784 7.942,109.675 10.130 C 107.219 12.678,106.868 13.109,106.211 14.379 C 105.864 15.050,105.418 15.600,105.221 15.600 C 105.023 15.600,104.659 16.216,104.411 16.968 C 104.162 17.720,103.710 18.543,103.405 18.796 C 103.101 19.048,102.729 19.828,102.580 20.528 C 102.430 21.227,102.113 22.041,101.875 22.336 C 99.883 24.803,99.800 27.233,99.800 82.887 C 99.800 82.935,86.562 83.070,70.382 83.187 C 43.253 83.383,40.881 83.454,39.896 84.100 C 39.309 84.485,38.476 84.800,38.045 84.800 C 37.614 84.800,36.727 85.250,36.073 85.800 C 35.419 86.350,34.687 86.800,34.446 86.800 C 34.204 86.800,33.782 87.160,33.507 87.600 C 33.232 88.040,32.865 88.400,32.690 88.400 C 32.234 88.400,29.600 91.099,29.600 91.567 C 29.600 91.783,29.375 92.104,29.100 92.280 C 26.526 93.927,24.485 104.698,25.832 109.523 C 26.101 110.488,26.203 109.240,26.205 104.923 C 26.211 96.301,29.394 90.146,35.600 86.756 C 36.370 86.336,37.270 85.829,37.600 85.629 C 40.876 83.650,41.705 83.600,71.102 83.600 C 87.681 83.600,99.150 83.447,99.752 83.218 L 100.756 82.837 100.881 54.518 C 100.998 28.343,101.062 26.064,101.728 24.400 C 102.125 23.410,102.638 21.973,102.869 21.206 C 103.100 20.440,103.629 19.380,104.045 18.852 C 104.460 18.324,104.800 17.674,104.800 17.408 C 104.800 17.142,105.160 16.598,105.600 16.200 C 106.040 15.802,106.400 15.239,106.400 14.948 C 106.400 14.201,113.829 6.800,114.580 6.800 C 114.921 6.800,115.200 6.623,115.200 6.407 C 115.200 5.300,123.127 2.079,127.600 1.369 C 132.756 0.549,267.297 0.571,272.800 1.392 C 282.120 2.783,290.667 8.663,295.247 16.836 C 295.603 17.471,296.075 18.218,296.295 18.495 C 296.515 18.773,296.925 19.720,297.206 20.600 C 297.486 21.480,297.873 22.302,298.064 22.427 C 298.439 22.673,299.394 27.000,299.999 31.200 C 300.205 32.630,300.380 44.915,300.387 58.500 C 300.394 72.085,300.445 83.241,300.500 83.292 C 300.555 83.343,313.560 83.485,329.400 83.608 L 358.200 83.831 360.795 84.781 C 362.222 85.304,363.629 85.972,363.923 86.266 C 364.217 86.560,364.711 86.800,365.022 86.800 C 365.703 86.800,371.600 92.614,371.600 93.285 C 371.600 93.545,372.095 94.471,372.700 95.344 L 373.800 96.931 373.800 104.366 C 373.800 110.653,373.694 111.985,373.114 113.000 C 372.737 113.660,372.151 114.783,371.811 115.496 C 370.939 117.325,366.186 121.964,364.452 122.680 C 363.653 123.010,362.730 123.516,362.400 123.805 C 361.304 124.764,354.693 125.600,348.200 125.600 C 344.790 125.600,341.956 125.645,341.903 125.700 C 341.849 125.755,341.714 181.240,341.603 249.000 L 341.400 372.200 340.472 375.000 C 339.355 378.367,336.086 384.998,335.104 385.886 C 334.717 386.237,334.400 386.666,334.400 386.840 C 334.400 387.454,329.373 392.110,327.200 393.509 C 325.990 394.289,324.523 395.250,323.940 395.645 C 323.357 396.041,322.367 396.491,321.740 396.646 C 321.113 396.801,319.970 397.245,319.200 397.634 C 316.059 399.217,313.183 399.252,197.351 399.124 C 108.155 399.025,85.740 399.101,85.894 399.500 C 86.164 400.203,314.254 400.239,314.488 399.536 C 314.573 399.281,315.769 398.939,317.145 398.777 C 318.521 398.614,319.951 398.207,320.323 397.872 C 320.696 397.537,321.540 397.131,322.200 396.970 C 322.860 396.809,323.829 396.345,324.354 395.939 C 324.879 395.533,325.527 395.200,325.796 395.200 C 326.064 395.200,326.752 394.795,327.326 394.300 C 327.899 393.805,328.833 393.040,329.400 392.600 C 330.610 391.662,333.200 389.223,333.200 389.023 C 333.200 388.947,333.761 388.284,334.447 387.550 C 335.990 385.898,338.400 382.174,338.400 381.441 C 338.400 381.142,338.648 380.692,338.950 380.441 C 339.253 380.190,339.717 379.133,339.983 378.092 C 340.248 377.052,340.765 375.660,341.132 375.000 C 341.751 373.889,341.815 364.659,342.000 250.200 L 342.200 126.600 349.600 126.400 C 353.944 126.283,357.330 126.015,357.800 125.751 C 358.240 125.504,359.437 125.181,360.460 125.033 C 361.483 124.884,362.726 124.411,363.221 123.981 C 363.717 123.552,364.350 123.200,364.627 123.200 C 365.687 123.200,371.398 117.679,372.283 115.800 C 372.594 115.140,373.105 114.150,373.418 113.600 C 373.732 113.050,373.991 112.229,373.994 111.776 C 373.997 111.324,374.264 110.604,374.587 110.176 C 376.190 108.057,374.921 97.325,372.727 94.446 C 372.327 93.921,372.000 93.267,372.000 92.992 C 372.000 91.535,363.935 84.800,362.190 84.800 C 361.790 84.800,361.115 84.485,360.690 84.100 C 359.972 83.451,357.787 83.386,330.458 83.200 L 301.000 83.000 300.800 55.600 C 300.658 36.190,300.467 27.967,300.145 27.400 C 299.894 26.960,299.477 25.565,299.216 24.300 C 298.956 23.035,298.486 21.743,298.172 21.429 C 297.857 21.114,297.600 20.583,297.600 20.247 C 297.600 19.425,296.747 17.600,296.363 17.600 C 296.193 17.600,295.927 17.195,295.772 16.700 C 295.617 16.205,295.067 15.260,294.549 14.600 C 294.031 13.940,293.290 12.974,292.904 12.453 C 290.950 9.824,284.994 4.800,283.830 4.800 C 283.470 4.800,283.081 4.556,282.967 4.257 C 282.852 3.959,282.003 3.477,281.079 3.186 C 280.156 2.896,279.122 2.426,278.783 2.142 C 278.444 1.859,277.123 1.504,275.848 1.354 C 274.481 1.193,273.444 0.860,273.322 0.541 C 273.047 -0.176,127.759 -0.277,127.520 0.439 M154.572 43.552 C 153.897 43.963,152.923 44.434,152.407 44.598 C 151.201 44.981,148.001 47.343,147.117 48.503 C 146.741 48.997,145.976 49.966,145.417 50.658 C 144.858 51.350,144.400 52.122,144.400 52.374 C 144.400 52.626,143.995 53.590,143.500 54.516 C 142.431 56.517,141.830 81.832,142.824 83.029 C 143.554 83.909,256.864 83.887,257.595 83.007 C 257.970 82.554,258.048 79.256,257.924 69.107 L 257.760 55.800 256.482 53.121 C 255.227 50.491,250.161 44.805,249.064 44.796 C 248.809 44.794,247.700 44.350,246.600 43.809 L 244.600 42.825 200.200 42.814 C 157.511 42.803,155.753 42.832,154.572 43.552 M245.304 44.000 C 246.125 44.440,247.131 44.800,247.540 44.800 C 247.949 44.800,248.769 45.250,249.362 45.800 C 249.956 46.350,250.690 46.800,250.994 46.800 C 251.297 46.800,251.657 47.151,251.794 47.580 C 251.930 48.008,252.392 48.470,252.820 48.606 C 253.249 48.743,253.600 49.034,253.600 49.254 C 253.600 49.473,254.050 50.243,254.600 50.964 C 255.150 51.686,255.600 52.473,255.600 52.715 C 255.600 52.957,256.005 53.840,256.500 54.677 C 257.376 56.159,257.404 56.556,257.543 69.482 L 257.686 82.763 256.743 82.991 C 256.224 83.117,230.420 83.170,199.400 83.110 L 143.000 83.000 142.894 70.722 C 142.805 60.357,142.887 58.177,143.419 56.722 C 143.765 55.775,144.237 54.370,144.467 53.600 C 145.019 51.754,149.476 46.400,150.461 46.400 C 150.648 46.400,151.160 46.040,151.600 45.600 C 152.040 45.160,152.720 44.800,153.111 44.800 C 153.502 44.800,154.177 44.552,154.611 44.248 C 155.972 43.296,156.071 43.294,200.406 43.246 C 243.093 43.201,243.837 43.213,245.304 44.000 M26.413 111.679 C 26.389 112.967,28.996 117.212,31.454 119.888 C 32.563 121.095,34.674 122.615,36.251 123.342 C 36.939 123.659,37.625 124.117,37.775 124.359 C 37.925 124.602,38.532 124.794,39.124 124.787 C 40.030 124.777,39.853 124.601,38.000 123.669 C 33.351 121.332,29.819 117.829,27.590 113.345 C 26.950 112.055,26.419 111.305,26.413 111.679 M41.800 125.459 C 43.023 125.976,45.145 126.191,50.800 126.368 L 58.200 126.600 58.400 249.600 C 58.547 339.998,58.720 372.812,59.052 373.400 C 59.301 373.840,59.712 375.183,59.966 376.384 C 60.220 377.585,60.667 378.845,60.960 379.184 C 61.253 379.523,61.602 380.262,61.735 380.826 C 61.869 381.391,62.343 382.273,62.789 382.787 C 63.235 383.302,63.600 383.936,63.600 384.198 C 63.600 385.208,71.618 393.600,72.583 393.600 C 72.922 393.600,73.200 393.789,73.200 394.020 C 73.200 394.252,73.799 394.691,74.532 394.997 C 75.264 395.303,76.078 395.812,76.341 396.129 C 76.603 396.445,77.387 396.817,78.083 396.957 C 78.778 397.096,79.656 397.488,80.032 397.829 C 80.419 398.179,81.650 398.505,82.859 398.578 C 84.036 398.648,84.550 398.632,84.000 398.543 C 82.056 398.226,74.805 394.842,73.671 393.722 C 73.381 393.435,72.965 393.200,72.749 393.200 C 72.252 393.200,66.418 387.390,65.377 385.857 C 64.091 383.966,62.845 381.860,62.384 380.800 C 62.145 380.250,61.619 379.080,61.214 378.200 C 60.810 377.320,60.101 374.856,59.639 372.725 L 58.800 368.850 58.800 247.901 C 58.800 151.757,58.697 126.819,58.300 126.300 C 57.883 125.755,56.645 125.615,50.800 125.448 C 46.950 125.338,42.990 125.143,42.000 125.015 L 40.200 124.781 41.800 125.459 M121.800 126.145 C 119.952 126.578,120.211 126.613,125.200 126.607 C 130.165 126.601,130.702 126.672,131.862 127.500 C 132.556 127.995,133.344 128.400,133.614 128.400 C 134.283 128.400,138.400 132.443,138.400 133.100 C 138.400 133.389,138.659 133.724,138.976 133.846 C 139.292 133.967,139.673 134.637,139.823 135.333 C 139.972 136.030,140.433 137.309,140.847 138.175 C 141.578 139.705,141.600 142.687,141.600 241.367 L 141.600 342.985 140.761 345.192 C 140.299 346.407,139.675 347.850,139.373 348.400 C 139.071 348.950,138.594 349.841,138.312 350.381 C 137.706 351.543,136.114 353.200,135.604 353.200 C 135.407 353.200,135.010 353.515,134.723 353.900 C 132.660 356.663,123.567 357.754,119.600 355.715 C 116.493 354.118,114.411 352.680,114.405 352.127 C 114.402 351.867,114.080 351.552,113.688 351.428 C 113.297 351.304,112.756 350.707,112.488 350.101 C 112.219 349.495,111.739 348.550,111.422 348.000 C 109.539 344.733,109.598 348.176,109.599 241.780 C 109.600 133.037,109.522 136.917,111.768 134.436 C 112.115 134.051,112.400 133.538,112.400 133.295 C 112.400 132.602,116.065 129.166,117.432 128.577 C 118.947 127.924,120.009 126.800,119.111 126.800 C 118.788 126.800,118.198 127.160,117.800 127.600 C 117.402 128.040,116.872 128.400,116.623 128.400 C 115.375 128.400,111.487 133.370,110.208 136.600 C 109.123 139.340,108.723 343.117,109.798 345.197 C 110.129 345.837,110.400 346.666,110.400 347.039 C 110.400 349.255,115.315 354.318,119.200 356.103 C 126.423 359.423,136.468 355.953,139.763 349.000 C 140.180 348.120,140.809 346.860,141.161 346.200 C 142.195 344.259,142.135 138.676,141.100 137.096 C 140.715 136.509,140.400 135.701,140.400 135.301 C 140.400 133.925,136.067 129.146,133.487 127.674 C 130.326 125.872,125.605 125.254,121.800 126.145 M196.400 126.165 C 192.766 126.964,187.334 130.888,186.582 133.257 C 186.452 133.666,186.187 134.000,185.992 134.000 C 185.797 134.000,185.226 135.215,184.723 136.700 L 183.808 139.400 183.700 240.575 C 183.582 350.966,183.446 343.930,185.794 348.511 C 186.975 350.817,189.211 353.583,189.900 353.593 C 190.175 353.597,190.400 353.783,190.400 354.006 C 190.400 354.230,191.075 354.718,191.900 355.091 C 192.725 355.463,193.681 355.998,194.024 356.278 C 196.070 357.947,203.445 357.698,207.354 355.828 C 209.285 354.904,213.200 351.685,213.200 351.021 C 213.200 350.853,213.650 350.181,214.200 349.527 C 214.750 348.873,215.200 348.027,215.200 347.646 C 215.200 347.265,215.464 346.604,215.787 346.176 C 216.110 345.749,216.359 344.680,216.341 343.800 C 216.322 342.920,216.220 342.560,216.114 343.000 C 215.188 346.839,213.139 350.952,211.770 351.720 C 211.457 351.896,211.200 352.281,211.200 352.577 C 211.200 352.872,210.750 353.226,210.200 353.364 C 209.650 353.502,209.200 353.862,209.200 354.163 C 209.200 354.472,208.594 354.825,207.813 354.971 C 207.050 355.114,206.118 355.539,205.742 355.916 C 202.981 358.682,192.643 356.182,188.682 351.791 C 184.447 347.096,184.800 357.110,184.800 241.600 C 184.800 135.596,184.785 136.575,186.453 134.446 C 186.864 133.921,187.200 133.320,187.200 133.110 C 187.200 132.504,191.136 128.873,192.114 128.576 C 192.601 128.429,193.415 127.928,193.922 127.464 C 195.363 126.143,204.874 126.171,206.564 127.500 C 207.193 127.995,207.978 128.400,208.308 128.400 C 209.729 128.400,206.751 126.806,204.243 126.225 C 201.135 125.504,199.469 125.491,196.400 126.165 M270.708 126.222 C 265.583 127.465,261.307 131.650,259.389 137.302 L 258.406 140.200 258.403 241.572 L 258.400 342.944 259.276 345.572 C 260.788 350.108,265.350 355.600,267.606 355.600 C 267.898 355.600,268.427 355.862,268.781 356.183 C 269.755 357.065,274.693 357.712,277.033 357.265 C 278.848 356.918,278.692 356.886,275.000 356.842 C 271.731 356.803,270.781 356.649,269.800 356.000 C 269.140 355.563,268.324 355.204,267.987 355.203 C 266.757 355.197,262.981 351.682,261.283 348.963 C 259.109 345.479,259.200 350.181,259.200 241.674 C 259.201 134.230,259.148 137.117,261.148 134.575 C 261.617 133.980,262.000 133.253,262.000 132.960 C 262.000 132.668,262.360 132.235,262.800 132.000 C 263.240 131.765,263.600 131.308,263.600 130.986 C 263.600 130.664,263.838 130.400,264.128 130.400 C 264.418 130.400,265.047 129.950,265.525 129.400 C 266.003 128.850,266.642 128.400,266.943 128.400 C 267.245 128.400,268.007 127.995,268.636 127.500 C 269.690 126.671,270.193 126.600,274.990 126.600 C 279.752 126.600,280.308 126.677,281.462 127.500 C 282.156 127.995,282.900 128.400,283.116 128.400 C 283.659 128.400,287.600 132.143,287.600 132.658 C 287.600 132.888,287.956 133.399,288.392 133.793 C 288.828 134.187,289.303 135.160,289.449 135.955 C 289.594 136.750,289.958 137.755,290.257 138.189 C 290.711 138.849,290.800 155.728,290.800 241.148 L 290.800 343.318 289.930 345.759 C 289.451 347.102,288.731 348.678,288.330 349.262 C 287.928 349.846,287.600 350.454,287.600 350.615 C 287.600 350.867,286.883 351.570,284.000 354.143 C 283.670 354.438,282.813 354.878,282.095 355.120 C 280.365 355.706,278.779 356.800,279.661 356.800 C 280.434 356.800,283.893 354.907,284.828 353.972 C 285.197 353.603,285.668 353.233,285.874 353.150 C 286.400 352.939,289.600 348.810,289.600 348.342 C 289.600 348.130,290.005 347.111,290.500 346.078 L 291.400 344.200 291.400 241.600 L 291.400 139.000 290.500 137.049 C 290.005 135.976,289.600 134.942,289.600 134.750 C 289.600 134.069,286.847 130.584,285.534 129.604 C 282.374 127.244,281.374 126.741,278.736 126.187 C 275.382 125.481,273.736 125.488,270.708 126.222 M209.449 128.881 C 209.642 129.206,210.565 130.169,211.500 131.020 C 212.435 131.871,213.200 132.791,213.200 133.064 C 213.200 133.337,213.447 133.704,213.749 133.880 C 214.050 134.056,214.589 135.190,214.945 136.400 C 215.784 139.250,216.385 140.214,216.394 138.724 C 216.397 138.132,216.240 137.548,216.044 137.427 C 215.849 137.306,215.565 136.711,215.414 136.104 C 214.883 133.974,211.775 129.944,209.647 128.629 C 209.237 128.375,209.187 128.439,209.449 128.881 M216.597 241.400 C 216.597 296.840,216.643 319.461,216.700 291.668 C 216.757 263.875,216.757 218.515,216.700 190.868 C 216.643 163.221,216.597 185.960,216.597 241.400 " stroke="none" fill="#fca4a4" fill-rule="evenodd"></path><path id="path3" d="M128.800 1.200 C 128.030 1.362,160.160 1.496,200.200 1.497 C 240.240 1.499,272.190 1.356,271.200 1.180 C 268.944 0.778,130.710 0.798,128.800 1.200 M122.000 2.756 C 118.300 4.283,115.200 5.947,115.200 6.407 C 115.200 6.623,114.921 6.800,114.580 6.800 C 113.829 6.800,106.400 14.201,106.400 14.948 C 106.400 15.239,106.040 15.802,105.600 16.200 C 105.160 16.598,104.800 17.142,104.800 17.408 C 104.800 17.674,104.440 18.350,104.000 18.909 C 102.846 20.377,103.014 20.683,104.200 19.273 C 104.750 18.619,105.200 17.866,105.200 17.600 C 105.200 17.334,105.605 16.627,106.100 16.029 C 106.595 15.431,107.450 14.347,108.000 13.619 C 108.550 12.890,109.679 11.615,110.510 10.784 C 111.902 9.393,112.532 8.868,115.539 6.600 C 117.571 5.067,123.410 2.467,125.908 1.982 L 127.400 1.692 126.000 1.688 C 125.230 1.685,123.430 2.166,122.000 2.756 M274.669 2.018 C 275.588 2.199,276.884 2.630,277.550 2.974 C 278.215 3.318,279.084 3.593,279.480 3.584 C 279.876 3.575,279.210 3.132,278.000 2.600 C 276.790 2.068,275.170 1.645,274.400 1.660 L 273.000 1.688 274.669 2.018 M281.800 4.610 C 282.680 5.152,283.520 5.597,283.666 5.598 C 283.812 5.599,284.352 5.955,284.866 6.389 C 285.380 6.822,286.743 7.905,287.895 8.794 C 289.047 9.683,290.724 11.353,291.621 12.505 C 292.518 13.657,293.687 15.140,294.219 15.800 C 294.750 16.460,295.189 17.203,295.193 17.451 C 295.197 17.699,295.458 18.117,295.774 18.379 C 296.090 18.641,296.468 19.428,296.613 20.128 C 296.759 20.827,297.210 21.978,297.616 22.684 C 299.175 25.396,299.361 28.706,299.491 56.169 C 299.616 82.436,299.681 83.657,300.949 83.568 C 301.232 83.549,301.214 83.462,300.900 83.335 C 300.508 83.177,300.397 77.816,300.387 58.467 C 300.380 44.900,300.205 32.630,299.999 31.200 C 299.394 27.000,298.439 22.673,298.064 22.427 C 297.873 22.302,297.486 21.480,297.206 20.600 C 296.925 19.720,296.515 18.773,296.295 18.495 C 296.075 18.218,295.603 17.471,295.247 16.836 C 292.491 11.917,287.696 7.289,282.487 4.519 C 280.207 3.307,279.776 3.364,281.800 4.610 M102.721 21.600 C 102.580 22.150,102.188 23.320,101.850 24.200 C 101.512 25.080,101.248 26.430,101.265 27.200 C 101.291 28.472,101.322 28.433,101.605 26.761 C 101.776 25.750,102.216 24.343,102.582 23.634 C 102.949 22.926,103.187 21.953,103.112 21.473 C 102.983 20.645,102.963 20.652,102.721 21.600 M100.897 55.913 L 100.800 82.826 99.900 83.188 L 99.000 83.549 99.913 83.575 C 101.260 83.612,101.215 84.649,101.101 55.800 L 100.994 29.000 100.897 55.913 M178.500 42.700 C 190.545 42.759,210.255 42.759,222.300 42.700 C 234.345 42.641,224.490 42.593,200.400 42.593 C 176.310 42.593,166.455 42.641,178.500 42.700 M152.375 44.133 C 148.627 46.268,147.844 46.853,146.600 48.452 C 145.940 49.300,145.085 50.382,144.700 50.858 C 144.315 51.333,144.000 51.923,144.000 52.167 C 144.000 52.412,143.640 53.284,143.200 54.104 C 142.760 54.925,142.418 56.093,142.441 56.699 L 142.482 57.800 142.774 56.600 C 142.935 55.940,143.366 54.824,143.733 54.120 C 144.100 53.416,144.400 52.632,144.400 52.378 C 144.400 52.123,144.858 51.350,145.417 50.658 C 145.976 49.966,146.741 48.997,147.117 48.503 C 148.001 47.343,151.201 44.981,152.407 44.598 C 153.736 44.176,155.920 42.797,155.200 42.834 C 154.870 42.851,153.599 43.435,152.375 44.133 M246.104 43.600 C 247.994 44.613,248.495 44.613,247.200 43.600 C 246.650 43.170,245.843 42.814,245.406 42.809 C 244.854 42.803,245.068 43.044,246.104 43.600 M249.055 44.796 C 250.809 45.504,255.196 50.426,256.491 53.139 L 257.760 55.800 257.924 69.107 C 258.056 79.902,257.984 82.544,257.544 83.107 C 257.052 83.734,257.067 83.747,257.700 83.251 C 258.499 82.624,258.736 62.573,258.010 56.990 C 257.447 52.663,251.431 44.338,248.929 44.425 C 248.310 44.447,248.329 44.503,249.055 44.796 M142.094 70.267 C 142.001 82.156,142.088 83.600,142.892 83.600 C 143.148 83.600,143.135 83.403,142.855 83.066 C 142.558 82.708,142.375 78.520,142.300 70.366 L 142.188 58.200 142.094 70.267 M41.762 84.170 C 41.081 84.467,39.937 84.838,39.219 84.996 C 37.417 85.392,32.940 88.274,33.405 88.739 C 33.548 88.882,33.876 88.710,34.134 88.358 C 34.392 88.005,34.984 87.596,35.449 87.448 C 35.914 87.300,36.616 86.824,37.009 86.390 C 37.402 85.955,38.101 85.592,38.562 85.581 C 39.839 85.553,45.165 83.652,44.000 83.641 C 43.450 83.636,42.443 83.874,41.762 84.170 M355.800 83.762 C 356.020 83.847,357.550 84.327,359.200 84.828 C 364.179 86.338,367.207 88.394,370.700 92.634 C 371.195 93.235,371.600 93.521,371.600 93.270 C 371.600 92.609,365.693 86.800,365.022 86.800 C 364.711 86.800,364.217 86.560,363.923 86.266 C 363.250 85.593,358.656 83.981,356.800 83.767 C 356.030 83.678,355.580 83.676,355.800 83.762 M31.296 90.300 C 26.915 95.572,26.208 97.589,26.215 104.800 C 26.220 110.308,27.749 116.823,28.335 113.831 C 28.409 113.451,28.178 112.818,27.821 112.424 C 26.854 111.354,26.292 107.096,26.542 102.722 C 26.832 97.656,28.018 94.986,32.503 89.300 C 33.462 88.085,32.418 88.950,31.296 90.300 M371.600 94.460 C 371.600 94.799,371.950 95.393,372.377 95.780 C 372.805 96.167,373.228 96.959,373.318 97.542 L 373.480 98.600 373.540 97.578 C 373.573 97.015,373.150 95.945,372.600 95.200 C 372.020 94.414,371.600 94.103,371.600 94.460 M373.593 105.200 C 373.393 111.595,373.351 111.862,372.218 113.800 C 369.698 118.112,366.050 121.836,363.600 122.599 C 362.218 123.029,360.484 124.400,361.322 124.400 C 361.669 124.400,362.073 124.205,362.220 123.967 C 362.368 123.729,363.270 123.199,364.225 122.789 C 366.023 122.018,371.600 116.751,371.600 115.823 C 371.600 115.540,371.958 114.853,372.395 114.297 C 373.616 112.745,374.035 109.901,373.912 103.997 L 373.800 98.600 373.593 105.200 M28.413 114.952 C 28.374 115.982,35.681 123.252,36.217 122.716 C 36.291 122.642,35.890 122.226,35.327 121.791 C 33.752 120.576,31.140 117.974,29.713 116.200 C 29.006 115.320,28.421 114.759,28.413 114.952 M37.985 123.648 C 39.951 124.846,42.802 125.249,50.800 125.462 C 56.656 125.617,57.882 125.754,58.300 126.300 C 58.697 126.819,58.807 151.853,58.833 248.176 C 58.864 363.637,58.900 369.533,59.587 372.200 C 59.983 373.740,60.327 374.550,60.349 374.000 C 60.372 373.450,60.125 372.010,59.800 370.800 C 59.286 368.883,59.209 353.019,59.205 247.589 C 59.201 141.714,59.126 126.473,58.611 125.738 C 58.050 124.936,57.614 124.890,49.290 124.735 C 41.153 124.583,40.455 124.511,39.056 123.686 C 38.230 123.199,37.340 122.801,37.077 122.801 C 36.815 122.802,37.223 123.183,37.985 123.648 M350.200 124.691 C 343.028 124.796,342.561 124.849,341.900 125.645 C 341.236 126.445,341.205 132.824,341.299 248.944 L 341.397 371.400 341.600 248.600 C 341.712 181.060,341.847 125.755,341.902 125.700 C 341.956 125.645,344.925 125.586,348.500 125.568 C 352.075 125.551,356.260 125.298,357.800 125.007 C 359.340 124.715,359.970 124.500,359.200 124.529 C 358.430 124.558,354.380 124.631,350.200 124.691 M122.870 125.408 C 120.360 126.020,119.472 126.624,121.800 126.136 C 123.736 125.729,127.222 125.712,129.400 126.098 C 130.766 126.340,130.679 126.270,128.800 125.615 C 126.247 124.726,125.739 124.708,122.870 125.408 M197.081 125.487 C 193.988 126.299,194.411 126.533,197.892 125.936 C 205.047 124.709,213.514 129.575,215.404 136.000 C 215.566 136.550,215.901 137.253,216.149 137.561 C 217.015 138.639,216.769 344.762,215.900 345.989 C 215.515 346.533,215.200 347.284,215.200 347.658 C 215.200 348.032,214.750 348.873,214.200 349.527 C 212.945 351.019,212.893 351.538,214.121 350.316 C 214.628 349.812,215.483 348.320,216.021 347.000 L 217.000 344.600 217.000 241.400 L 217.000 138.200 216.100 136.322 C 215.605 135.289,215.200 134.325,215.200 134.180 C 215.200 133.362,210.714 128.685,209.214 127.939 C 208.656 127.661,207.930 127.220,207.600 126.959 C 205.565 125.345,200.388 124.620,197.081 125.487 M271.881 125.487 C 269.016 126.239,269.109 126.583,272.009 125.961 C 273.965 125.541,275.409 125.585,279.200 126.178 C 280.062 126.313,279.677 126.092,278.200 125.604 C 275.410 124.682,274.983 124.674,271.881 125.487 M117.600 127.200 C 117.093 127.640,116.570 128.001,116.439 128.002 C 115.167 128.011,110.943 133.287,109.881 136.192 C 108.403 140.235,108.390 141.284,108.495 243.294 L 108.600 344.200 109.491 346.000 C 109.981 346.990,110.386 347.476,110.391 347.080 C 110.396 346.684,110.129 345.837,109.798 345.197 C 108.723 343.117,109.123 139.340,110.208 136.600 C 111.487 133.370,115.375 128.400,116.623 128.400 C 116.872 128.400,117.393 128.050,117.780 127.622 C 118.167 127.195,118.870 126.769,119.342 126.677 C 120.191 126.511,120.191 126.508,119.361 126.454 C 118.900 126.425,118.107 126.760,117.600 127.200 M133.003 127.448 C 134.919 128.453,137.595 130.903,139.500 133.396 C 140.802 135.100,140.605 134.344,139.208 132.273 C 137.657 129.976,133.077 126.400,131.685 126.400 C 131.312 126.400,131.905 126.871,133.003 127.448 M192.046 127.338 C 189.203 129.148,184.779 134.126,184.825 135.463 C 184.846 136.069,184.915 136.039,185.214 135.295 C 185.414 134.797,185.765 134.167,185.994 133.895 C 186.222 133.623,186.916 132.740,187.535 131.933 C 188.889 130.167,190.391 128.895,192.800 127.471 C 193.790 126.886,194.330 126.423,194.000 126.442 C 193.670 126.460,192.791 126.864,192.046 127.338 M266.800 127.226 C 263.556 129.820,262.530 130.809,261.143 132.683 C 260.294 133.829,259.614 135.089,259.632 135.483 C 259.656 136.036,259.712 136.063,259.876 135.600 C 260.888 132.748,264.720 128.850,268.400 126.927 C 269.267 126.474,269.294 126.406,268.600 126.416 C 268.160 126.422,267.350 126.786,266.800 127.226 M281.162 126.685 C 281.773 126.927,283.438 128.039,285.534 129.604 C 286.912 130.633,289.600 134.082,289.600 134.821 C 289.600 135.051,289.882 135.785,290.226 136.450 C 290.570 137.116,291.001 138.412,291.182 139.331 L 291.512 141.000 291.556 139.389 C 291.580 138.503,291.356 137.423,291.057 136.989 C 290.758 136.555,290.292 135.517,290.020 134.683 C 289.214 132.205,282.826 126.314,281.072 126.432 C 280.795 126.450,280.832 126.555,281.162 126.685 M140.424 135.314 C 140.411 135.707,140.715 136.509,141.100 137.096 C 142.135 138.676,142.195 344.259,141.161 346.200 C 140.809 346.860,140.180 348.120,139.763 349.000 C 134.737 359.606,118.292 360.105,111.809 349.849 C 111.172 348.841,110.574 348.093,110.480 348.187 C 110.142 348.525,111.984 351.043,114.071 353.094 C 120.063 358.983,128.963 359.477,135.784 354.299 C 137.760 352.799,140.155 349.858,140.587 348.400 C 140.750 347.850,141.180 346.950,141.542 346.400 C 142.148 345.479,142.208 337.212,142.303 242.082 L 142.406 138.765 141.427 136.682 C 140.888 135.537,140.437 134.921,140.424 135.314 M183.965 137.498 C 183.287 138.821,182.895 340.300,183.564 343.579 C 186.321 357.078,201.476 362.452,211.400 353.450 C 212.500 352.452,213.280 351.628,213.134 351.618 C 212.987 351.608,212.087 352.333,211.134 353.228 C 206.924 357.181,197.246 358.906,194.024 356.278 C 193.681 355.998,192.725 355.463,191.900 355.091 C 191.075 354.718,190.400 354.230,190.400 354.006 C 190.400 353.783,190.175 353.597,189.900 353.593 C 188.505 353.573,185.214 348.150,184.209 344.216 C 183.284 340.593,183.284 142.581,184.210 139.027 C 184.894 136.401,184.807 135.857,183.965 137.498 M258.650 137.991 C 257.551 140.740,257.697 343.585,258.800 345.600 C 259.717 347.275,259.843 346.680,259.000 344.662 C 258.046 342.378,258.095 140.779,259.050 138.391 C 259.408 137.498,259.610 136.677,259.500 136.567 C 259.390 136.457,259.008 137.098,258.650 137.991 M291.250 343.400 C 291.208 344.060,290.825 345.320,290.400 346.200 C 289.975 347.080,289.621 348.009,289.614 348.264 C 289.598 348.796,286.439 352.924,285.874 353.150 C 285.668 353.233,285.197 353.603,284.828 353.972 C 281.536 357.264,271.499 358.643,268.775 356.177 C 268.424 355.860,267.898 355.600,267.606 355.600 C 266.017 355.600,261.926 351.443,260.127 348.000 C 259.833 347.436,259.604 347.264,259.602 347.605 C 259.601 347.938,260.215 349.124,260.967 350.240 C 266.637 358.659,277.727 360.392,285.509 354.076 C 288.517 351.635,291.779 345.908,291.495 343.569 C 291.332 342.236,291.326 342.232,291.250 343.400 M340.269 373.474 C 339.932 374.533,339.548 375.945,339.416 376.610 C 339.284 377.276,338.558 378.986,337.803 380.410 C 337.048 381.835,336.151 383.585,335.810 384.300 C 335.468 385.015,335.012 385.600,334.795 385.600 C 334.578 385.600,334.400 385.808,334.400 386.062 C 334.400 387.129,335.922 385.023,337.680 381.524 C 339.526 377.849,341.510 372.177,341.095 371.762 C 340.978 371.644,340.606 372.415,340.269 373.474 M60.434 375.888 C 60.415 376.376,60.751 377.456,61.180 378.288 C 61.608 379.119,62.153 380.250,62.389 380.800 C 62.843 381.855,64.080 383.950,65.377 385.857 C 66.418 387.390,72.252 393.200,72.749 393.200 C 72.965 393.200,73.381 393.435,73.671 393.722 C 74.990 395.024,82.738 398.548,83.823 398.339 C 84.231 398.260,82.997 397.675,81.082 397.039 C 79.167 396.402,77.398 395.638,77.151 395.341 C 76.904 395.043,76.468 394.800,76.182 394.800 C 75.896 394.800,75.127 394.350,74.473 393.800 C 73.819 393.250,73.099 392.800,72.873 392.800 C 70.665 392.800,62.385 381.312,60.779 376.021 C 60.493 375.079,60.466 375.069,60.434 375.888 M331.296 389.643 C 329.703 391.174,328.400 392.544,328.400 392.688 C 328.400 392.967,329.817 391.690,332.665 388.844 C 335.523 385.989,334.442 386.619,331.296 389.643 M326.836 393.357 C 326.581 393.663,325.794 394.146,325.087 394.430 C 324.379 394.714,323.371 395.273,322.846 395.673 C 322.321 396.073,321.601 396.401,321.246 396.402 C 320.891 396.404,320.062 396.686,319.404 397.029 C 318.746 397.372,317.576 397.803,316.804 397.986 L 315.400 398.320 316.606 398.360 C 317.269 398.382,318.439 398.064,319.206 397.653 C 319.973 397.243,321.183 396.779,321.895 396.623 C 322.608 396.466,323.283 396.189,323.395 396.007 C 323.508 395.825,324.590 395.118,325.800 394.435 C 327.010 393.752,328.000 393.105,328.000 392.997 C 328.000 392.596,327.283 392.818,326.836 393.357 M87.400 398.815 C 90.570 399.209,310.355 399.210,313.200 398.817 C 314.410 398.649,263.560 398.514,200.200 398.515 C 136.840 398.516,86.080 398.652,87.400 398.815 " stroke="none" fill="#fc9090" fill-rule="evenodd"></path><path id="path4" d="M125.908 1.979 C 123.401 2.471,117.566 5.071,115.539 6.600 C 112.532 8.868,111.902 9.393,110.510 10.784 C 109.679 11.615,108.550 12.890,108.000 13.619 C 107.450 14.347,106.595 15.431,106.100 16.029 C 105.605 16.627,105.200 17.334,105.200 17.600 C 105.200 17.866,104.750 18.619,104.200 19.273 C 103.650 19.927,103.200 20.875,103.200 21.380 C 103.200 21.885,102.795 23.176,102.300 24.249 L 101.400 26.200 101.200 54.800 L 101.000 83.400 72.400 83.620 C 44.270 83.836,43.764 83.854,41.600 84.707 C 40.390 85.184,39.066 85.580,38.658 85.587 C 38.250 85.594,37.381 86.050,36.727 86.600 C 36.073 87.150,35.302 87.600,35.012 87.600 C 34.723 87.600,34.382 87.870,34.255 88.200 C 34.129 88.530,33.765 88.800,33.446 88.800 C 32.638 88.800,29.380 93.249,27.954 96.299 C 26.031 100.411,25.928 110.332,27.786 112.385 C 28.124 112.758,28.400 113.390,28.400 113.790 C 28.400 115.377,35.519 122.800,37.040 122.800 C 37.323 122.800,38.230 123.199,39.056 123.686 C 40.455 124.511,41.153 124.583,49.290 124.735 C 57.614 124.890,58.050 124.936,58.611 125.738 C 59.126 126.473,59.200 141.709,59.200 247.592 C 59.200 328.003,59.336 369.074,59.605 370.003 C 59.827 370.771,60.194 372.546,60.420 373.948 C 61.351 379.726,70.054 392.800,72.969 392.800 C 73.248 392.800,73.798 393.155,74.191 393.590 C 74.584 394.024,75.287 394.495,75.753 394.637 C 76.219 394.779,76.870 395.125,77.200 395.407 C 77.530 395.689,79.425 396.480,81.412 397.163 L 85.023 398.407 201.012 398.303 L 317.000 398.200 318.878 397.300 C 319.911 396.805,321.002 396.400,321.302 396.400 C 321.602 396.400,322.196 396.130,322.624 395.800 C 323.051 395.470,324.120 394.836,325.000 394.391 C 325.880 393.946,326.965 393.361,327.411 393.091 C 328.843 392.224,334.400 386.697,334.400 386.139 C 334.400 385.842,334.578 385.600,334.795 385.600 C 335.012 385.600,335.468 385.015,335.810 384.300 C 336.151 383.585,337.046 381.838,337.800 380.417 C 338.553 378.996,339.355 376.968,339.582 375.911 C 339.808 374.854,340.265 373.339,340.597 372.546 C 341.130 371.270,341.200 356.884,341.200 248.840 C 341.200 141.815,341.273 126.473,341.789 125.737 C 342.352 124.933,342.779 124.889,351.373 124.735 C 359.711 124.585,360.451 124.513,361.492 123.743 C 362.110 123.286,363.062 122.772,363.608 122.600 C 366.053 121.830,369.685 118.121,372.225 113.800 L 373.400 111.800 373.400 104.332 C 373.400 97.138,373.367 96.829,372.500 95.906 C 372.005 95.380,371.600 94.674,371.600 94.338 C 371.600 91.892,365.205 86.842,359.600 84.861 L 356.600 83.800 328.540 83.690 C 306.098 83.601,300.394 83.475,300.049 83.059 C 299.752 82.701,299.578 74.285,299.491 56.169 C 299.361 28.706,299.175 25.396,297.616 22.684 C 297.210 21.978,296.759 20.827,296.613 20.128 C 296.468 19.428,296.090 18.641,295.774 18.379 C 295.458 18.117,295.197 17.699,295.193 17.451 C 295.189 17.203,294.750 16.460,294.219 15.800 C 293.687 15.140,292.518 13.657,291.621 12.505 C 290.724 11.353,289.047 9.683,287.895 8.794 C 286.743 7.905,285.413 6.867,284.940 6.489 C 283.704 5.498,280.097 3.600,279.451 3.600 C 279.149 3.600,278.024 3.195,276.951 2.700 L 275.000 1.800 201.200 1.743 C 160.610 1.711,126.728 1.818,125.908 1.979 M275.654 3.049 C 276.048 3.406,277.200 3.853,278.214 4.042 C 279.227 4.231,280.518 4.749,281.082 5.193 C 281.646 5.637,282.521 6.000,283.027 6.000 C 283.595 6.000,284.043 6.306,284.200 6.800 C 284.340 7.240,284.680 7.600,284.957 7.600 C 285.234 7.600,285.883 8.050,286.400 8.600 C 286.917 9.150,287.533 9.610,287.770 9.623 C 288.264 9.649,292.420 14.449,292.961 15.620 C 293.160 16.049,293.557 16.400,293.843 16.400 C 294.129 16.400,294.484 17.042,294.632 17.828 C 294.779 18.613,295.237 19.466,295.650 19.724 C 296.123 20.020,296.400 20.653,296.400 21.442 C 296.400 22.133,296.803 23.204,297.300 23.836 L 298.200 24.980 298.299 53.390 C 298.354 69.015,298.484 82.174,298.589 82.631 C 298.990 84.374,299.438 84.400,328.687 84.400 C 352.839 84.400,356.625 84.479,357.198 84.998 C 357.561 85.327,358.745 85.711,359.829 85.851 C 360.913 85.991,362.160 86.421,362.600 86.807 C 363.040 87.192,363.850 87.645,364.400 87.811 C 364.950 87.978,365.635 88.449,365.923 88.857 C 366.210 89.266,366.705 89.600,367.023 89.600 C 367.340 89.600,367.600 89.858,367.600 90.173 C 367.600 90.488,367.960 90.860,368.400 91.000 C 368.840 91.140,369.200 91.441,369.200 91.669 C 369.200 91.898,369.650 92.619,370.200 93.273 C 370.750 93.927,371.200 94.801,371.200 95.217 C 371.200 95.632,371.560 96.165,372.000 96.400 C 373.231 97.059,373.231 110.981,372.000 112.400 C 371.560 112.907,371.200 113.584,371.200 113.903 C 371.200 114.812,366.521 120.397,365.758 120.399 C 365.516 120.400,364.831 120.850,364.238 121.400 C 363.644 121.950,362.836 122.400,362.441 122.400 C 362.046 122.400,361.307 122.760,360.800 123.200 C 359.938 123.948,359.299 124.000,351.039 124.006 C 346.169 124.010,341.931 124.183,341.600 124.392 C 341.070 124.727,340.977 139.009,340.800 247.685 C 340.611 363.918,340.562 370.654,339.900 371.589 C 339.476 372.188,339.200 373.310,339.200 374.435 C 339.200 375.705,338.939 376.624,338.376 377.340 C 337.923 377.916,337.443 379.065,337.311 379.894 C 337.179 380.722,336.740 381.635,336.335 381.923 C 335.931 382.210,335.600 382.677,335.600 382.960 C 335.600 383.244,335.150 383.999,334.600 384.638 C 334.051 385.277,333.601 385.939,333.600 386.109 C 333.600 386.568,329.350 390.800,328.890 390.800 C 328.672 390.800,328.399 391.160,328.284 391.600 C 328.161 392.071,327.738 392.400,327.258 392.400 C 326.809 392.400,325.956 392.850,325.362 393.400 C 324.769 393.950,323.974 394.400,323.596 394.400 C 323.217 394.400,322.479 394.732,321.954 395.139 C 321.429 395.545,320.281 395.991,319.401 396.130 C 318.522 396.268,317.602 396.656,317.357 396.991 C 316.684 397.911,84.218 397.921,83.201 397.001 C 82.837 396.671,81.670 396.239,80.608 396.041 C 79.546 395.843,78.516 395.392,78.318 395.040 C 78.121 394.688,77.518 394.400,76.977 394.400 C 76.428 394.400,75.612 393.959,75.125 393.400 C 74.647 392.850,74.031 392.400,73.756 392.400 C 73.197 392.400,66.400 385.740,66.400 385.192 C 66.400 384.999,65.950 384.356,65.400 383.762 C 64.850 383.169,64.400 382.377,64.400 382.004 C 64.400 381.630,64.040 380.998,63.600 380.600 C 63.157 380.199,62.800 379.368,62.800 378.738 C 62.800 378.112,62.480 377.280,62.090 376.890 C 60.230 375.030,60.242 375.816,60.014 246.800 C 59.896 180.250,59.646 125.485,59.457 125.100 C 59.269 124.715,59.089 124.371,59.057 124.335 C 59.026 124.299,54.732 124.164,49.517 124.035 C 41.424 123.834,39.958 123.705,39.517 123.149 C 39.232 122.792,38.416 122.391,37.702 122.260 C 35.924 121.932,29.200 115.235,29.200 113.791 C 29.200 113.246,28.795 112.395,28.300 111.901 C 26.788 110.390,26.686 99.784,28.163 97.654 C 28.733 96.830,29.200 95.762,29.200 95.278 C 29.200 94.795,29.376 94.400,29.592 94.400 C 29.807 94.400,30.351 93.680,30.800 92.800 C 31.249 91.920,31.793 91.200,32.008 91.200 C 32.224 91.200,32.400 90.938,32.400 90.619 C 32.400 90.299,33.022 89.743,33.782 89.382 C 34.541 89.021,35.374 88.473,35.631 88.163 C 35.888 87.853,36.340 87.600,36.635 87.600 C 36.930 87.600,37.350 87.266,37.569 86.859 C 37.861 86.312,38.617 86.050,40.452 85.858 C 41.820 85.715,43.237 85.328,43.601 84.999 C 44.176 84.479,47.975 84.400,72.400 84.400 C 98.020 84.400,100.602 84.341,101.269 83.738 C 101.964 83.109,102.000 81.685,102.003 54.838 C 102.005 27.334,102.026 26.569,102.800 25.400 C 103.309 24.631,103.596 23.523,103.597 22.314 C 103.599 20.843,103.775 20.335,104.395 20.003 C 104.833 19.768,105.299 19.145,105.431 18.618 C 105.564 18.090,106.016 17.348,106.436 16.967 C 106.856 16.587,107.200 15.956,107.200 15.565 C 107.200 15.174,107.560 14.740,108.000 14.600 C 108.440 14.460,108.800 14.180,108.800 13.978 C 108.800 13.375,114.818 7.600,115.447 7.600 C 115.765 7.600,116.125 7.339,116.248 7.019 C 116.370 6.700,117.130 6.225,117.935 5.963 C 118.741 5.701,119.538 5.253,119.707 4.967 C 119.875 4.681,120.816 4.327,121.796 4.180 C 122.776 4.033,123.971 3.572,124.451 3.156 C 125.711 2.063,274.448 1.958,275.654 3.049 M158.989 41.341 C 158.555 41.639,157.125 42.005,155.811 42.155 C 154.280 42.330,153.121 42.710,152.585 43.214 C 152.125 43.646,151.460 44.000,151.108 44.000 C 150.231 44.000,148.642 45.374,144.381 49.814 C 143.951 50.262,143.600 51.095,143.600 51.665 C 143.600 52.297,143.248 52.936,142.700 53.300 L 141.800 53.897 141.681 68.585 C 141.594 79.361,141.687 83.423,142.030 83.836 C 142.429 84.316,151.025 84.400,199.995 84.400 L 257.492 84.400 258.546 83.571 L 259.600 82.742 259.600 71.020 C 259.600 61.088,259.508 59.222,259.000 58.800 C 258.590 58.460,258.400 57.550,258.400 55.930 C 258.400 54.059,258.189 53.247,257.400 52.086 C 256.850 51.277,256.400 50.398,256.400 50.134 C 256.400 49.870,256.059 49.546,255.643 49.414 C 255.227 49.282,254.794 48.819,254.681 48.387 C 254.567 47.954,254.209 47.600,253.884 47.600 C 253.559 47.600,253.199 47.241,253.085 46.802 C 252.970 46.363,252.544 45.880,252.138 45.728 C 251.732 45.577,251.175 45.140,250.900 44.758 C 250.624 44.376,249.874 43.948,249.233 43.807 C 248.592 43.666,247.975 43.311,247.862 43.018 C 247.740 42.698,246.647 42.373,245.129 42.205 C 243.738 42.050,242.201 41.671,241.714 41.362 C 240.417 40.539,160.188 40.519,158.989 41.341 M247.062 43.500 C 247.756 43.995,248.624 44.400,248.991 44.400 C 251.487 44.400,257.456 52.733,258.010 56.990 C 258.579 61.366,258.506 82.534,257.920 83.120 C 257.551 83.489,244.126 83.600,199.928 83.600 L 142.415 83.600 142.170 82.623 C 141.424 79.652,142.213 55.813,143.110 54.206 C 143.600 53.329,144.000 52.412,144.000 52.167 C 144.000 51.923,144.315 51.333,144.700 50.858 C 145.085 50.382,145.940 49.300,146.600 48.452 C 147.836 46.863,148.686 46.223,152.171 44.252 C 155.352 42.454,154.629 42.479,201.400 42.541 L 245.800 42.600 247.062 43.500 M122.729 124.259 C 122.140 124.363,121.443 124.707,121.180 125.024 C 120.917 125.341,120.193 125.600,119.572 125.600 C 118.920 125.600,117.984 126.024,117.362 126.600 C 116.769 127.150,116.074 127.600,115.819 127.600 C 115.239 127.600,111.600 130.955,111.600 131.490 C 111.600 131.706,111.150 132.369,110.600 132.962 C 110.042 133.565,109.600 134.523,109.600 135.132 C 109.600 135.731,109.239 136.531,108.798 136.909 C 107.619 137.918,107.721 345.714,108.900 346.576 C 109.285 346.858,109.600 347.572,109.600 348.163 C 109.600 348.796,110.011 349.619,110.600 350.165 C 111.150 350.675,111.600 351.215,111.600 351.366 C 111.600 351.834,114.255 354.400,114.740 354.400 C 114.993 354.400,115.200 354.679,115.200 355.020 C 115.200 355.362,115.785 355.912,116.500 356.244 C 117.215 356.576,118.250 357.105,118.800 357.418 C 119.350 357.732,120.340 357.993,121.000 358.000 C 121.660 358.006,122.963 358.278,123.896 358.602 C 125.358 359.112,125.827 359.117,127.296 358.640 C 128.233 358.335,129.724 358.000,130.608 357.894 C 132.218 357.701,135.119 356.042,135.720 354.970 C 135.896 354.657,136.267 354.400,136.545 354.400 C 137.097 354.400,139.200 352.360,139.200 351.824 C 139.200 351.641,139.650 351.075,140.200 350.565 C 140.750 350.055,141.200 349.270,141.200 348.819 C 141.200 348.369,141.560 347.640,142.000 347.200 C 142.796 346.404,142.800 345.867,142.800 241.654 C 142.800 137.514,142.795 136.902,142.000 135.891 C 141.560 135.331,141.197 134.632,141.193 134.337 C 141.174 132.954,136.538 127.601,135.358 127.600 C 135.116 127.600,134.431 127.150,133.838 126.600 C 133.171 125.982,132.287 125.600,131.523 125.600 C 130.844 125.600,130.086 125.323,129.838 124.985 C 129.369 124.343,124.864 123.883,122.729 124.259 M197.277 124.266 C 196.549 124.370,195.855 124.712,195.734 125.027 C 195.613 125.342,195.007 125.600,194.388 125.600 C 193.768 125.600,192.727 126.050,192.073 126.600 C 191.419 127.150,190.749 127.600,190.583 127.600 C 189.916 127.600,186.716 130.569,186.352 131.526 C 186.138 132.090,185.611 132.797,185.181 133.098 C 184.752 133.399,184.400 134.061,184.400 134.569 C 184.400 135.077,184.040 135.950,183.600 136.509 C 182.336 138.116,182.336 345.456,183.600 346.600 C 184.044 347.002,184.400 347.832,184.400 348.465 C 184.400 349.183,184.770 349.927,185.400 350.475 C 185.950 350.953,186.400 351.582,186.400 351.872 C 186.400 352.162,186.674 352.400,187.009 352.400 C 187.343 352.400,187.822 352.850,188.073 353.400 C 188.323 353.950,188.763 354.400,189.050 354.400 C 189.337 354.400,189.763 354.758,189.997 355.195 C 190.232 355.633,190.913 356.112,191.512 356.262 C 192.110 356.411,192.780 356.775,193.000 357.072 C 193.220 357.368,194.390 357.774,195.600 357.972 C 196.810 358.171,198.250 358.506,198.800 358.716 C 199.902 359.136,202.284 358.911,202.629 358.354 C 202.749 358.159,203.622 358.000,204.570 358.000 C 205.642 358.000,206.652 357.719,207.246 357.255 C 207.771 356.845,208.605 356.383,209.100 356.228 C 209.596 356.073,210.187 355.598,210.414 355.173 C 210.642 354.748,211.031 354.400,211.278 354.400 C 211.862 354.400,214.000 352.008,214.000 351.355 C 214.000 351.079,214.360 350.740,214.800 350.600 C 215.240 350.460,215.600 350.071,215.600 349.735 C 215.600 349.399,216.005 348.556,216.500 347.862 L 217.400 346.600 217.400 241.332 L 217.400 136.064 216.500 135.106 C 216.005 134.580,215.600 133.919,215.600 133.637 C 215.600 132.614,211.107 127.616,210.178 127.605 C 209.945 127.602,209.145 127.150,208.400 126.600 C 207.655 126.050,206.689 125.600,206.254 125.600 C 205.819 125.600,205.155 125.321,204.779 124.981 C 204.060 124.330,199.733 123.918,197.277 124.266 M271.876 124.266 C 271.258 124.371,270.654 124.715,270.534 125.029 C 270.402 125.371,269.762 125.600,268.938 125.600 C 267.984 125.600,267.278 125.907,266.635 126.600 C 266.125 127.150,265.512 127.600,265.273 127.600 C 264.558 127.600,260.800 131.266,260.800 131.963 C 260.800 132.318,260.449 132.827,260.020 133.095 C 259.591 133.363,259.113 134.261,258.957 135.091 C 258.802 135.921,258.388 136.810,258.038 137.068 C 257.064 137.782,257.058 345.114,258.031 346.258 C 258.378 346.666,258.880 347.765,259.147 348.700 C 259.414 349.635,259.809 350.400,260.026 350.400 C 260.243 350.400,260.591 350.850,260.800 351.400 C 261.009 351.950,261.459 352.400,261.800 352.400 C 262.141 352.400,262.591 352.850,262.800 353.400 C 263.009 353.950,263.435 354.400,263.747 354.400 C 264.059 354.400,264.408 354.644,264.522 354.942 C 264.840 355.768,269.042 357.999,270.294 358.006 C 270.902 358.009,272.163 358.278,273.096 358.602 C 274.557 359.111,275.028 359.117,276.496 358.641 C 277.433 358.337,279.088 357.978,280.172 357.842 C 281.380 357.691,282.433 357.286,282.888 356.798 C 283.297 356.359,283.882 356.000,284.189 356.000 C 284.495 356.000,284.860 355.640,285.000 355.200 C 285.140 354.760,285.586 354.400,285.991 354.400 C 286.767 354.400,288.800 352.276,288.800 351.466 C 288.800 351.205,289.160 350.768,289.600 350.493 C 290.040 350.218,290.400 349.659,290.400 349.251 C 290.400 348.842,290.805 347.993,291.300 347.364 L 292.200 346.220 292.200 241.543 L 292.200 136.867 291.300 135.650 C 290.805 134.980,290.400 134.139,290.400 133.779 C 290.400 132.604,285.982 127.616,284.931 127.605 C 284.673 127.602,283.927 127.150,283.273 126.600 C 282.619 126.050,281.585 125.600,280.974 125.600 C 280.363 125.600,279.538 125.306,279.142 124.947 C 278.399 124.275,274.150 123.877,271.876 124.266 M128.864 125.595 C 130.259 126.032,131.617 126.392,131.882 126.395 C 132.389 126.400,133.988 127.423,136.509 129.353 C 137.758 130.310,140.400 133.606,140.400 134.208 C 140.400 134.301,140.851 135.363,141.403 136.569 L 142.406 138.762 142.303 242.081 C 142.208 337.212,142.148 345.479,141.542 346.400 C 141.180 346.950,140.750 347.850,140.587 348.400 C 140.155 349.858,137.760 352.799,135.784 354.299 C 126.623 361.254,114.580 357.786,109.745 346.800 L 108.601 344.200 108.496 243.294 C 108.390 141.284,108.403 140.235,109.881 136.192 C 110.957 133.248,115.172 128.010,116.471 128.002 C 116.621 128.001,117.034 127.709,117.389 127.354 C 117.744 126.999,118.702 126.538,119.517 126.331 C 120.333 126.124,121.900 125.714,123.000 125.421 C 125.755 124.687,125.992 124.694,128.864 125.595 M203.974 125.641 C 205.639 126.104,207.270 126.697,207.600 126.959 C 207.930 127.220,208.656 127.661,209.214 127.939 C 210.714 128.685,215.200 133.362,215.200 134.180 C 215.200 134.325,215.605 135.289,216.100 136.322 L 217.000 138.200 217.000 241.400 L 217.000 344.600 216.020 347.000 C 214.923 349.688,214.617 350.111,211.569 353.144 C 202.053 362.615,186.357 357.254,183.564 343.579 C 182.779 339.734,183.301 138.781,184.100 137.320 C 184.485 136.616,184.800 135.744,184.800 135.383 C 184.800 134.048,189.514 128.842,192.019 127.411 C 195.997 125.139,200.025 124.543,203.974 125.641 M278.800 125.729 C 283.897 127.275,288.912 131.278,290.020 134.683 C 290.292 135.517,290.758 136.555,291.057 136.989 C 291.511 137.649,291.600 154.777,291.600 241.433 L 291.600 345.087 290.491 347.244 C 287.853 352.376,285.817 354.485,281.460 356.598 C 274.478 359.985,263.560 356.160,260.342 349.200 C 259.986 348.430,259.313 346.940,258.847 345.889 L 258.000 343.979 258.009 241.689 C 258.017 140.643,258.027 139.379,258.809 137.656 C 259.244 136.697,259.600 135.655,259.600 135.339 C 259.600 132.579,266.181 127.035,270.999 125.737 C 275.069 124.640,275.210 124.640,278.800 125.729 " stroke="none" fill="#fc4444" fill-rule="evenodd"></path></g></svg>